# xmcd
# 
# Track frame offsets:
#     150
#     22128
#     44704
#     68937
#     93935
#     113649
#     130166
#     155657
#     176692
# 
# Disc length: 2702
# 
# Revision: 0
# Processed by: cddbd v1.5.2PL0 Copyright (c) Steve Scherf et al.
# Submitted via: fre:ac v1.0.27
# 
DISCID=7c0a8c09
DTITLE=Marc Stone - Poison and Medicine
DYEAR=2015
DGENRE=Blues
TTITLE0=I Tried
TTITLE1=Come To Me
TTITLE2=7th Ave. (Oh She Was Pretty)
TTITLE3=When You're Bad
TTITLE4=Whatever You Do
TTITLE5=Time
TTITLE6=Lost Love Lounge
TTITLE7=Restless Heart
TTITLE8=The Well
EXTD=
EXTT0=
EXTT1=
EXTT2=
EXTT3=
EXTT4=
EXTT5=
EXTT6=
EXTT7=
EXTT8=
PLAYORDER=
